RobotoA2-XTSP-100.ufo
<glyph name="three" format="2">
  <advance width="982"/>
  <unicode hex="0033"/>
  <outline>
    <contour>
      <point x="10" y="380" type="qcurve" smooth="yes"/>
      <point x="10" y="390" type="line"/>
      <point x="196" y="390" type="line"/>
      <point x="196" y="380" type="line" smooth="yes"/>
      <point x="196" y="260"/>
      <point x="356" y="128"/>
      <point x="488" y="128" type="qcurve" smooth="yes"/>
      <point x="620" y="128"/>
      <point x="778" y="260"/>
      <point x="778" y="400" type="qcurve" smooth="yes"/>
      <point x="778" y="540"/>
      <point x="600" y="682"/>
      <point x="450" y="682" type="qcurve" smooth="yes"/>
      <point x="335" y="682" type="line"/>
      <point x="335" y="836" type="line"/>
      <point x="440" y="836" type="line" smooth="yes"/>
      <point x="578" y="836"/>
      <point x="728" y="970"/>
      <point x="728" y="1090" type="qcurve" smooth="yes"/>
      <point x="728" y="1210"/>
      <point x="598" y="1328"/>
      <point x="488" y="1328" type="qcurve" smooth="yes"/>
      <point x="372" y="1328"/>
      <point x="236" y="1210"/>
      <point x="236" y="1100" type="qcurve" smooth="yes"/>
      <point x="236" y="1090" type="line"/>
      <point x="50" y="1090" type="line"/>
      <point x="50" y="1100" type="line" smooth="yes"/>
      <point x="50" y="1260"/>
      <point x="292" y="1486"/>
      <point x="488" y="1486" type="qcurve" smooth="yes"/>
      <point x="678" y="1486"/>
      <point x="920" y="1270"/>
      <point x="920" y="1100" type="qcurve" smooth="yes"/>
      <point x="920" y="1000"/>
      <point x="810" y="816"/>
      <point x="694" y="766" type="qcurve"/>
      <point x="694" y="762" type="line"/>
      <point x="820" y="730"/>
      <point x="972" y="540"/>
      <point x="972" y="401" type="qcurve" smooth="yes"/>
      <point x="972" y="200"/>
      <point x="698" y="-30"/>
      <point x="488" y="-30" type="qcurve" smooth="yes"/>
      <point x="266" y="-30"/>
      <point x="10" y="200"/>
    </contour>
  </outline>
</glyph>
<glyph name="eight" format="2">
  <advance width="968"/>
  <unicode hex="0038"/>
  <outline>
    <contour>
      <point x="10" y="386" type="qcurve" smooth="yes"/>
      <point x="10" y="516"/>
      <point x="153" y="701"/>
      <point x="265" y="746" type="qcurve"/>
      <point x="265" y="750" type="line"/>
      <point x="179" y="793"/>
      <point x="56" y="967"/>
      <point x="56" y="1087" type="qcurve" smooth="yes"/>
      <point x="56" y="1267"/>
      <point x="305" y="1486"/>
      <point x="485" y="1486" type="qcurve" smooth="yes"/>
      <point x="665" y="1486"/>
      <point x="912" y="1269"/>
      <point x="912" y="1087" type="qcurve" smooth="yes"/>
      <point x="912" y="967"/>
      <point x="790" y="793"/>
      <point x="704" y="750" type="qcurve"/>
      <point x="704" y="746" type="line"/>
      <point x="816" y="701"/>
      <point x="958" y="516"/>
      <point x="958" y="386" type="qcurve" smooth="yes"/>
      <point x="958" y="188"/>
      <point x="685" y="-30"/>
      <point x="485" y="-30" type="qcurve" smooth="yes"/>
      <point x="285" y="-30"/>
      <point x="10" y="188"/>
    </contour>
    <contour>
      <point x="198" y="396" type="qcurve" smooth="yes"/>
      <point x="198" y="276"/>
      <point x="355" y="128"/>
      <point x="485" y="128" type="qcurve" smooth="yes"/>
      <point x="615" y="128"/>
      <point x="770" y="276"/>
      <point x="770" y="396" type="qcurve" smooth="yes"/>
      <point x="770" y="516"/>
      <point x="615" y="666"/>
      <point x="485" y="666" type="qcurve" smooth="yes"/>
      <point x="355" y="666"/>
      <point x="198" y="516"/>
    </contour>
    <contour>
      <point x="240" y="1077" type="qcurve" smooth="yes"/>
      <point x="240" y="967"/>
      <point x="375" y="824"/>
      <point x="485" y="824" type="qcurve" smooth="yes"/>
      <point x="595" y="824"/>
      <point x="728" y="967"/>
      <point x="728" y="1077" type="qcurve" smooth="yes"/>
      <point x="728" y="1187"/>
      <point x="595" y="1328"/>
      <point x="485" y="1328" type="qcurve" smooth="yes"/>
      <point x="375" y="1328"/>
      <point x="240" y="1187"/>
    </contour>
  </outline>
</glyph>
<glyph name="nine" format="2">
  <advance width="1016"/>
  <unicode hex="0039"/>
  <outline>
    <contour>
      <point x="10" y="1002" type="qcurve" smooth="yes"/>
      <point x="10" y="1218"/>
      <point x="284" y="1486"/>
      <point x="494" y="1486" type="qcurve" smooth="yes"/>
      <point x="704" y="1486"/>
      <point x="1006" y="1182"/>
      <point x="1006" y="842" type="qcurve" smooth="yes"/>
      <point x="1006" y="812" type="line" smooth="yes"/>
      <point x="1006" y="459"/>
      <point x="595" y="0"/>
      <point x="215" y="0" type="qcurve" smooth="yes"/>
      <point x="194" y="0" type="line"/>
      <point x="194" y="158" type="line"/>
      <point x="214" y="158" type="line" smooth="yes"/>
      <point x="494" y="158"/>
      <point x="818" y="479"/>
      <point x="818" y="802" type="qcurve" smooth="yes"/>
      <point x="818" y="852" type="line" smooth="yes"/>
      <point x="818" y="1112"/>
      <point x="634" y="1328"/>
      <point x="494" y="1328" type="qcurve" smooth="yes"/>
      <point x="354" y="1328"/>
      <point x="200" y="1157"/>
      <point x="200" y="1002" type="qcurve" smooth="yes"/>
      <point x="200" y="847"/>
      <point x="354" y="678"/>
      <point x="494" y="678" type="qcurve" smooth="yes"/>
      <point x="624" y="678"/>
      <point x="824" y="847"/>
      <point x="824" y="1002" type="qcurve"/>
      <point x="894" y="1002" type="line"/>
      <point x="894" y="786"/>
      <point x="654" y="520"/>
      <point x="454" y="520" type="qcurve" smooth="yes"/>
      <point x="255" y="520"/>
      <point x="10" y="786"/>
    </contour>
  </outline>
</glyph>
<glyph name="colon" format="2">
  <advance width="268"/>
  <unicode hex="003A"/>
  <outline>
    <contour>
      <point x="10" y="97" type="qcurve" smooth="yes"/>
      <point x="10" y="146"/>
      <point x="74" y="216"/>
      <point x="134" y="216" type="qcurve" smooth="yes"/>
      <point x="194" y="216"/>
      <point x="258" y="146"/>
      <point x="258" y="97" type="qcurve" smooth="yes"/>
      <point x="258" y="48"/>
      <point x="194" y="-22"/>
      <point x="134" y="-22" type="qcurve" smooth="yes"/>
      <point x="74" y="-22"/>
      <point x="10" y="48"/>
    </contour>
    <contour>
      <point x="10" y="949" type="qcurve" smooth="yes"/>
      <point x="10" y="998"/>
      <point x="74" y="1068"/>
      <point x="134" y="1068" type="qcurve" smooth="yes"/>
      <point x="194" y="1068"/>
      <point x="258" y="998"/>
      <point x="258" y="949" type="qcurve" smooth="yes"/>
      <point x="258" y="900"/>
      <point x="194" y="830"/>
      <point x="134" y="830" type="qcurve" smooth="yes"/>
      <point x="74" y="830"/>
      <point x="10" y="900"/>
    </contour>
  </outline>
</glyph>
<glyph name="A" format="2">
  <advance width="1300"/>
  <unicode hex="0041"/>
  <anchor x="650" y="0" name="bottom"/>
  <anchor x="1184" y="0" name="ogonek"/>
  <anchor x="650" y="1456" name="top"/>
  <anchor x="273" y="1074" name="tonos"/>
  <outline>
    <contour>
      <point x="10" y="0" type="line"/>
      <point x="564" y="1466" type="line"/>
      <point x="736" y="1466" type="line"/>
      <point x="1290" y="0" type="line"/>
      <point x="1090" y="0" type="line"/>
      <point x="690" y="1100" type="line" smooth="yes"/>
      <point x="678" y="1133"/>
      <point x="660" y="1195"/>
      <point x="653" y="1228" type="qcurve"/>
      <point x="643" y="1228" type="line"/>
      <point x="636" y="1195"/>
      <point x="618" y="1133"/>
      <point x="606" y="1100" type="qcurve" smooth="yes"/>
      <point x="202" y="0" type="line"/>
    </contour>
    <contour>
      <point x="248" y="380" type="line"/>
      <point x="307" y="538" type="line"/>
      <point x="991" y="538" type="line"/>
      <point x="1049" y="380" type="line"/>
    </contour>
  </outline>
</glyph>
<glyph name="K" format="2">
  <advance width="1136"/>
  <unicode hex="004B"/>
  <anchor x="473" y="0" name="bottom"/>
  <anchor x="473" y="1456" name="top"/>
  <outline>
    <contour>
      <point x="10" y="0" type="line"/>
      <point x="10" y="1456" type="line"/>
      <point x="202" y="1456" type="line"/>
      <point x="202" y="0" type="line"/>
    </contour>
    <contour>
      <point x="890" y="0" type="line"/>
      <point x="326" y="756" type="line"/>
      <point x="450" y="890" type="line"/>
      <point x="1126" y="0" type="line"/>
    </contour>
    <contour>
      <point x="108" y="396" type="line"/>
      <point x="108" y="636" type="line"/>
      <point x="850" y="1456" type="line"/>
      <point x="1082" y="1456" type="line"/>
    </contour>
  </outline>
</glyph>
<glyph name="V" format="2">
  <advance width="1280"/>
  <unicode hex="0056"/>
  <anchor x="640" y="0" name="bottom"/>
  <anchor x="640" y="1456" name="top"/>
  <outline>
    <contour>
      <point x="10" y="1456" type="line"/>
      <point x="214" y="1456" type="line"/>
      <point x="600" y="378" type="line" smooth="yes"/>
      <point x="612" y="345"/>
      <point x="628" y="294"/>
      <point x="637" y="264" type="qcurve"/>
      <point x="646" y="264" type="line"/>
      <point x="655" y="294"/>
      <point x="672" y="345"/>
      <point x="684" y="378" type="qcurve" smooth="yes"/>
      <point x="1074" y="1456" type="line"/>
      <point x="1270" y="1456" type="line"/>
      <point x="726" y="-10" type="line"/>
      <point x="554" y="-10" type="line"/>
    </contour>
  </outline>
</glyph>
<glyph name="Y" format="2">
  <advance width="1218"/>
  <unicode hex="0059"/>
  <anchor x="609" y="0" name="bottom"/>
  <anchor x="609" y="1456" name="top"/>
  <anchor x="-180" y="1074" name="tonos"/>
  <outline>
    <contour>
      <point x="513" y="0" type="line"/>
      <point x="513" y="544" type="line"/>
      <point x="10" y="1456" type="line"/>
      <point x="226" y="1456" type="line"/>
      <point x="554" y="840" type="line" smooth="yes"/>
      <point x="570" y="810"/>
      <point x="597" y="760"/>
      <point x="608" y="733" type="qcurve"/>
      <point x="614" y="733" type="line"/>
      <point x="625" y="760"/>
      <point x="652" y="810"/>
      <point x="668" y="840" type="qcurve" smooth="yes"/>
      <point x="1000" y="1456" type="line"/>
      <point x="1208" y="1456" type="line"/>
      <point x="705" y="544" type="line"/>
      <point x="705" y="0" type="line"/>
    </contour>
  </outline>
</glyph>
<glyph name="h" format="2">
  <advance width="872"/>
  <unicode hex="0068"/>
  <anchor x="431" y="0" name="bottom"/>
  <anchor x="182" y="1327" name="center"/>
  <anchor x="106" y="1536" name="top"/>
  <anchor x="769" y="0" name="engtail"/>
  <outline>
    <contour>
      <point x="196" y="0" type="line"/>
      <point x="10" y="0" type="line"/>
      <point x="10" y="1536" type="line"/>
      <point x="196" y="1536" type="line"/>
    </contour>
    <contour>
      <point x="116" y="787" type="line"/>
      <point x="183" y="938"/>
      <point x="396" y="1072"/>
      <point x="526" y="1072" type="qcurve" smooth="yes"/>
      <point x="673" y="1072"/>
      <point x="862" y="891"/>
      <point x="862" y="679" type="qcurve" smooth="yes"/>
      <point x="862" y="0" type="line"/>
      <point x="676" y="0" type="line"/>
      <point x="676" y="681" type="line" smooth="yes"/>
      <point x="676" y="807"/>
      <point x="563" y="916"/>
      <point x="459" y="916" type="qcurve" smooth="yes"/>
      <point x="352" y="916"/>
      <point x="191" y="772"/>
      <point x="116" y="579" type="qcurve"/>
    </contour>
  </outline>
</glyph>
<glyph name="l" format="2">
  <advance width="206"/>
  <unicode hex="006C"/>
  <anchor x="103" y="0" name="bottom"/>
  <anchor x="103" y="791" name="center"/>
  <anchor x="103" y="1536" name="top"/>
  <anchor x="296" y="1052" name="topright"/>
  <anchor x="103" y="542" name="yu_dash"/>
  <outline>
    <contour>
      <point x="10" y="0" type="line"/>
      <point x="10" y="1536" type="line"/>
      <point x="196" y="1536" type="line"/>
      <point x="196" y="0" type="line"/>
    </contour>
  </outline>
</glyph>
<glyph name="sterling" format="2">
  <advance width="1012"/>
  <unicode hex="00A3"/>
  <outline>
    <contour>
      <point x="1002" y="0" type="line"/>
      <point x="10" y="0" type="line"/>
      <point x="10" y="160" type="line"/>
      <point x="66" y="160" type="line" smooth="yes"/>
      <point x="158" y="160"/>
      <point x="238" y="324"/>
      <point x="224" y="467" type="qcurve" smooth="yes"/>
      <point x="169" y="1039" type="line" smooth="yes"/>
      <point x="151" y="1228"/>
      <point x="354" y="1476"/>
      <point x="555" y="1476" type="qcurve" smooth="yes"/>
      <point x="745" y="1476"/>
      <point x="958" y="1270"/>
      <point x="958" y="1103" type="qcurve" smooth="yes"/>
      <point x="958" y="1087" type="line"/>
      <point x="766" y="1087" type="line"/>
      <point x="766" y="1103" type="line" smooth="yes"/>
      <point x="766" y="1218"/>
      <point x="649" y="1309"/>
      <point x="557" y="1309" type="qcurve" smooth="yes"/>
      <point x="460" y="1309"/>
      <point x="343" y="1185"/>
      <point x="357" y="1039" type="qcurve" smooth="yes"/>
      <point x="408" y="508" type="line" smooth="yes"/>
      <point x="421" y="372"/>
      <point x="366" y="207"/>
      <point x="296" y="166" type="qcurve"/>
      <point x="1002" y="166" type="line"/>
    </contour>
    <contour>
      <point x="798" y="625" type="line"/>
      <point x="26" y="625" type="line"/>
      <point x="26" y="780" type="line"/>
      <point x="798" y="780" type="line"/>
    </contour>
  </outline>
</glyph>
<glyph name="degree" format="2">
  <advance width="526"/>
  <unicode hex="00B0"/>
  <outline>
    <contour>
      <point x="10" y="1217" type="qcurve"/>
      <point x="10" y="1323"/>
      <point x="161" y="1477"/>
      <point x="265" y="1477" type="qcurve" smooth="yes"/>
      <point x="368" y="1477"/>
      <point x="516" y="1323"/>
      <point x="516" y="1217" type="qcurve" smooth="yes"/>
      <point x="516" y="1110"/>
      <point x="368" y="960"/>
      <point x="265" y="960" type="qcurve" smooth="yes"/>
      <point x="161" y="960"/>
      <point x="10" y="1110"/>
    </contour>
    <contour>
      <point x="134" y="1217" type="qcurve"/>
      <point x="134" y="1162"/>
      <point x="211" y="1088"/>
      <point x="265" y="1088" type="qcurve" smooth="yes"/>
      <point x="319" y="1088"/>
      <point x="392" y="1162"/>
      <point x="392" y="1217" type="qcurve" smooth="yes"/>
      <point x="392" y="1273"/>
      <point x="319" y="1349"/>
      <point x="265" y="1349" type="qcurve" smooth="yes"/>
      <point x="211" y="1349"/>
      <point x="134" y="1273"/>
    </contour>
  </outline>
</glyph>
<glyph name="plusminus" format="2">
  <advance width="930"/>
  <unicode hex="00B1"/>
  <outline>
    <contour>
      <point x="10" y="611" type="line"/>
      <point x="10" y="775" type="line"/>
      <point x="920" y="775" type="line"/>
      <point x="920" y="611" type="line"/>
    </contour>
    <contour>
      <point x="375" y="248" type="line"/>
      <point x="375" y="1160" type="line"/>
      <point x="555" y="1160" type="line"/>
      <point x="555" y="248" type="line"/>
    </contour>
    <contour>
      <point x="10" y="1" type="line"/>
      <point x="10" y="165" type="line"/>
      <point x="920" y="165" type="line"/>
      <point x="920" y="1" type="line"/>
    </contour>
  </outline>
</glyph>
<glyph name="multiply" format="2">
  <advance width="869"/>
  <unicode hex="00D7"/>
  <outline>
    <contour>
      <point x="118" y="237" type="line"/>
      <point x="10" y="349" type="line"/>
      <point x="748" y="1104" type="line"/>
      <point x="856" y="991" type="line"/>
    </contour>
    <contour>
      <point x="740" y="237" type="line"/>
      <point x="13" y="980" type="line"/>
      <point x="132" y="1104" type="line"/>
      <point x="859" y="360" type="line"/>
    </contour>
  </outline>
</glyph>
<glyph name="ae" format="2">
  <advance width="1622"/>
  <unicode hex="00E6"/>
  <anchor x="820" y="1052" name="top"/>
  <outline>
    <contour>
      <point x="370" y="-20" type="qcurve" smooth="yes"/>
      <point x="220" y="-20"/>
      <point x="10" y="150"/>
      <point x="10" y="300" type="qcurve" smooth="yes"/>
      <point x="10" y="470"/>
      <point x="264" y="648"/>
      <point x="460" y="648" type="qcurve" smooth="yes"/>
      <point x="788" y="648" type="line"/>
      <point x="788" y="516" type="line"/>
      <point x="480" y="516" type="line" smooth="yes"/>
      <point x="340" y="516"/>
      <point x="196" y="410"/>
      <point x="196" y="320" type="qcurve" smooth="yes"/>
      <point x="196" y="230"/>
      <point x="300" y="128"/>
      <point x="410" y="128" type="qcurve" smooth="yes"/>
      <point x="520" y="128"/>
      <point x="698" y="280"/>
      <point x="698" y="365" type="qcurve"/>
      <point x="698" y="720" type="line" smooth="yes"/>
      <point x="698" y="815"/>
      <point x="600" y="934"/>
      <point x="480" y="934" type="qcurve" smooth="yes"/>
      <point x="360" y="934"/>
      <point x="257" y="835"/>
      <point x="257" y="770" type="qcurve" smooth="yes"/>
      <point x="257" y="765" type="line"/>
      <point x="72" y="765" type="line"/>
      <point x="72" y="770" type="line" smooth="yes"/>
      <point x="72" y="895"/>
      <point x="295" y="1082"/>
      <point x="485" y="1082" type="qcurve" smooth="yes"/>
      <point x="649" y="1082"/>
      <point x="821" y="949"/>
      <point x="831" y="872" type="qcurve"/>
      <point x="851" y="950"/>
      <point x="1019" y="1082"/>
      <point x="1165" y="1082" type="qcurve" smooth="yes"/>
      <point x="1380" y="1082"/>
      <point x="1612" y="800"/>
      <point x="1612" y="560" type="qcurve" smooth="yes"/>
      <point x="1612" y="484" type="line"/>
      <point x="803" y="484" type="line"/>
      <point x="803" y="632" type="line"/>
      <point x="1424" y="632" type="line"/>
      <point x="1425" y="656" type="line"/>
      <point x="1424" y="770"/>
      <point x="1295" y="930"/>
      <point x="1162" y="930" type="qcurve" smooth="yes"/>
      <point x="1025" y="930"/>
      <point x="879" y="705"/>
      <point x="879" y="542" type="qcurve" smooth="yes"/>
      <point x="879" y="510" type="line" smooth="yes"/>
      <point x="879" y="347"/>
      <point x="1033" y="122"/>
      <point x="1195" y="122" type="qcurve" smooth="yes"/>
      <point x="1295" y="122"/>
      <point x="1439" y="210"/>
      <point x="1484" y="270" type="qcurve"/>
      <point x="1604" y="175" type="line"/>
      <point x="1554" y="100"/>
      <point x="1345" y="-30"/>
      <point x="1195" y="-30" type="qcurve" smooth="yes"/>
      <point x="1049" y="-30"/>
      <point x="817" y="90"/>
      <point x="763" y="213" type="qcurve"/>
      <point x="722" y="99"/>
      <point x="522" y="-20"/>
    </contour>
  </outline>
</glyph>
<glyph name="eth" format="2">
  <advance width="964"/>
  <unicode hex="00F0"/>
  <outline>
    <contour>
      <point x="139" y="1421" type="qcurve"/>
      <point x="196" y="1581" type="line"/>
      <point x="533" y="1506"/>
      <point x="954" y="1008"/>
      <point x="954" y="633" type="qcurve"/>
      <point x="954" y="535" type="line"/>
      <point x="954" y="289"/>
      <point x="688" y="-20"/>
      <point x="486" y="-20" type="qcurve" smooth="yes"/>
      <point x="276" y="-20"/>
      <point x="10" y="265"/>
      <point x="10" y="468" type="qcurve" smooth="yes"/>
      <point x="10" y="698"/>
      <point x="265" y="978"/>
      <point x="458" y="978" type="qcurve" smooth="yes"/>
      <point x="627" y="978"/>
      <point x="858" y="749"/>
      <point x="858" y="614" type="qcurve"/>
      <point x="789" y="614" type="line"/>
      <point x="789" y="680"/>
      <point x="645" y="826"/>
      <point x="502" y="826" type="qcurve" smooth="yes"/>
      <point x="356" y="826"/>
      <point x="196" y="632"/>
      <point x="196" y="468" type="qcurve" smooth="yes"/>
      <point x="196" y="345"/>
      <point x="349" y="132"/>
      <point x="490" y="132" type="qcurve" smooth="yes"/>
      <point x="618" y="132"/>
      <point x="768" y="363"/>
      <point x="768" y="535" type="qcurve" smooth="yes"/>
      <point x="768" y="635" type="line" smooth="yes"/>
      <point x="768" y="984"/>
      <point x="393" y="1355"/>
    </contour>
    <contour>
      <point x="862" y="1427" type="line"/>
      <point x="325" y="1061" type="line"/>
      <point x="242" y="1181" type="line"/>
      <point x="779" y="1546" type="line"/>
    </contour>
  </outline>
</glyph>
<glyph name="kgreenlandic" format="2">
  <advance width="953"/>
  <unicode hex="0138"/>
  <outline>
    <contour>
      <point x="195" y="1052" type="line"/>
      <point x="195" y="0" type="line"/>
      <point x="10" y="0" type="line"/>
      <point x="10" y="1052" type="line"/>
    </contour>
    <contour>
      <point x="882" y="1052" type="line"/>
      <point x="372" y="462" type="line"/>
      <point x="105" y="462" type="line"/>
      <point x="105" y="624" type="line"/>
      <point x="287" y="624" type="line"/>
      <point x="658" y="1052" type="line"/>
    </contour>
    <contour>
      <point x="709" y="0" type="line"/>
      <point x="278" y="490" type="line"/>
      <point x="397" y="624" type="line"/>
      <point x="943" y="0" type="line"/>
    </contour>
  </outline>
</glyph>
<glyph name="alpha" format="2">
  <advance width="1121"/>
  <unicode hex="03B1"/>
  <anchor x="475" y="1052" name="top"/>
  <outline>
    <contour>
      <point x="450" y="-20" type="qcurve" smooth="yes"/>
      <point x="250" y="-20"/>
      <point x="10" y="280"/>
      <point x="10" y="510" type="qcurve" smooth="yes"/>
      <point x="10" y="542" type="line" smooth="yes"/>
      <point x="10" y="772"/>
      <point x="250" y="1072"/>
      <point x="450" y="1072" type="qcurve" smooth="yes"/>
      <point x="657" y="1072"/>
      <point x="871" y="776"/>
      <point x="871" y="531" type="qcurve" smooth="yes"/>
      <point x="871" y="505" type="line" smooth="yes"/>
      <point x="871" y="282"/>
      <point x="650" y="-20"/>
    </contour>
    <contour>
      <point x="490" y="132" type="qcurve" smooth="yes"/>
      <point x="631" y="132"/>
      <point x="804" y="354"/>
      <point x="804" y="503" type="qcurve" smooth="yes"/>
      <point x="804" y="531" type="line" smooth="yes"/>
      <point x="804" y="704"/>
      <point x="626" y="920"/>
      <point x="490" y="920" type="qcurve" smooth="yes"/>
      <point x="340" y="920"/>
      <point x="200" y="702"/>
      <point x="200" y="542" type="qcurve" smooth="yes"/>
      <point x="200" y="510" type="line" smooth="yes"/>
      <point x="200" y="350"/>
      <point x="340" y="132"/>
    </contour>
    <contour>
      <point x="1001" y="-30" type="qcurve" smooth="yes"/>
      <point x="904" y="-30"/>
      <point x="791" y="53"/>
      <point x="777" y="145" type="qcurve"/>
      <point x="761" y="145" type="line"/>
      <point x="761" y="915" type="line"/>
      <point x="776" y="915" type="line"/>
      <point x="784" y="1052" type="line"/>
      <point x="947" y="1052" type="line"/>
      <point x="947" y="262" type="line" smooth="yes"/>
      <point x="947" y="187"/>
      <point x="992" y="130"/>
      <point x="1042" y="130" type="qcurve"/>
      <point x="1057" y="130"/>
      <point x="1094" y="137"/>
      <point x="1111" y="144" type="qcurve"/>
      <point x="1111" y="-8" type="line"/>
      <point x="1092" y="-17"/>
      <point x="1035" y="-30"/>
    </contour>
  </outline>
</glyph>
<glyph name="zeta" format="2">
  <advance width="811"/>
  <unicode hex="03B6"/>
  <guideline x="809" y="291" angle="90" identifier="Hhem4nGbLg"/>
  <guideline x="856" y="823" angle="90" identifier="UwRnHAo0ZQ"/>
  <outline>
    <contour>
      <point x="564" y="-348" type="line"/>
      <point x="587" y="-295"/>
      <point x="618" y="-195"/>
      <point x="618" y="-143" type="qcurve" smooth="yes"/>
      <point x="618" y="-84"/>
      <point x="557" y="-29"/>
      <point x="473" y="-9" type="qcurve" smooth="yes"/>
      <point x="342" y="23" type="line" smooth="yes"/>
      <point x="174" y="64"/>
      <point x="10" y="226"/>
      <point x="10" y="365" type="qcurve"/>
      <point x="10" y="463"/>
      <point x="99" y="666"/>
      <point x="336" y="998" type="qcurve" smooth="yes"/>
      <point x="629" y="1408" type="line"/>
      <point x="635" y="1384" type="line"/>
      <point x="56" y="1384" type="line"/>
      <point x="56" y="1536" type="line"/>
      <point x="801" y="1536" type="line"/>
      <point x="801" y="1379" type="line"/>
      <point x="471" y="916" type="line" smooth="yes"/>
      <point x="282" y="650"/>
      <point x="200" y="475"/>
      <point x="200" y="388" type="qcurve"/>
      <point x="200" y="311"/>
      <point x="290" y="211"/>
      <point x="415" y="180" type="qcurve" smooth="yes"/>
      <point x="536" y="150" type="line" smooth="yes"/>
      <point x="692" y="111"/>
      <point x="796" y="6"/>
      <point x="796" y="-84" type="qcurve" smooth="yes"/>
      <point x="796" y="-147"/>
      <point x="766" y="-278"/>
      <point x="734" y="-348" type="qcurve"/>
    </contour>
  </outline>
</glyph>
<glyph name="pi" format="2">
  <advance width="1154"/>
  <unicode hex="03C0"/>
  <outline>
    <contour>
      <point x="10" y="900" type="line"/>
      <point x="10" y="1052" type="line"/>
      <point x="1144" y="1052" type="line"/>
      <point x="1144" y="900" type="line"/>
    </contour>
    <contour>
      <point x="176" y="0" type="line"/>
      <point x="176" y="971" type="line"/>
      <point x="362" y="971" type="line"/>
      <point x="362" y="0" type="line"/>
    </contour>
    <contour>
      <point x="1026" y="-30" type="qcurve" smooth="yes"/>
      <point x="911" y="-30"/>
      <point x="791" y="89"/>
      <point x="791" y="240" type="qcurve"/>
      <point x="791" y="971" type="line"/>
      <point x="977" y="971" type="line"/>
      <point x="977" y="279" type="line"/>
      <point x="977" y="196"/>
      <point x="1018" y="130"/>
      <point x="1074" y="130" type="qcurve"/>
      <point x="1088" y="130"/>
      <point x="1130" y="139"/>
      <point x="1141" y="144" type="qcurve"/>
      <point x="1141" y="-8" type="line"/>
      <point x="1123" y="-17"/>
      <point x="1064" y="-30"/>
    </contour>
  </outline>
</glyph>
<glyph name="phi" format="2">
  <advance width="1298"/>
  <unicode hex="03C6"/>
  <outline>
    <contour>
      <point x="556" y="-416" type="line"/>
      <point x="556" y="45" type="line"/>
      <point x="556" y="89" type="line"/>
      <point x="556" y="981" type="line"/>
      <point x="556" y="1022" type="line"/>
      <point x="556" y="1536" type="line"/>
      <point x="742" y="1536" type="line"/>
      <point x="742" y="1022" type="line"/>
      <point x="742" y="979" type="line"/>
      <point x="742" y="85" type="line"/>
      <point x="742" y="45" type="line"/>
      <point x="742" y="-416" type="line"/>
    </contour>
    <contour>
      <point x="556" y="-30" type="line"/>
      <point x="287" y="-20"/>
      <point x="10" y="267"/>
      <point x="10" y="510" type="qcurve" smooth="yes"/>
      <point x="10" y="542" type="line" smooth="yes"/>
      <point x="10" y="785"/>
      <point x="287" y="1072"/>
      <point x="556" y="1082" type="qcurve"/>
      <point x="742" y="1082" type="line"/>
      <point x="1011" y="1072"/>
      <point x="1288" y="785"/>
      <point x="1288" y="542" type="qcurve" smooth="yes"/>
      <point x="1288" y="510" type="line" smooth="yes"/>
      <point x="1288" y="267"/>
      <point x="1011" y="-20"/>
      <point x="742" y="-30" type="qcurve"/>
    </contour>
    <contour>
      <point x="556" y="122" type="qcurve"/>
      <point x="742" y="122" type="line"/>
      <point x="939" y="132"/>
      <point x="1098" y="342"/>
      <point x="1098" y="510" type="qcurve" smooth="yes"/>
      <point x="1098" y="542" type="line" smooth="yes"/>
      <point x="1098" y="710"/>
      <point x="939" y="920"/>
      <point x="742" y="930" type="qcurve"/>
      <point x="556" y="930" type="line"/>
      <point x="359" y="920"/>
      <point x="200" y="710"/>
      <point x="200" y="542" type="qcurve" smooth="yes"/>
      <point x="200" y="510" type="line" smooth="yes"/>
      <point x="200" y="342"/>
      <point x="359" y="132"/>
    </contour>
  </outline>
</glyph>
<glyph name="psi" format="2">
  <advance width="1182"/>
  <unicode hex="03C8"/>
  <outline>
    <contour>
      <point x="498" y="-416" type="line"/>
      <point x="498" y="1536" type="line"/>
      <point x="684" y="1536" type="line"/>
      <point x="684" y="-416" type="line"/>
    </contour>
    <contour>
      <point x="498" y="-20" type="line"/>
      <point x="289" y="-10"/>
      <point x="10" y="237"/>
      <point x="10" y="480" type="qcurve" smooth="yes"/>
      <point x="10" y="1052" type="line"/>
      <point x="196" y="1052" type="line"/>
      <point x="196" y="490" type="line" smooth="yes"/>
      <point x="196" y="322"/>
      <point x="361" y="146"/>
      <point x="498" y="136" type="qcurve"/>
      <point x="684" y="136" type="line"/>
      <point x="821" y="146"/>
      <point x="986" y="322"/>
      <point x="986" y="490" type="qcurve" smooth="yes"/>
      <point x="986" y="1052" type="line"/>
      <point x="1172" y="1052" type="line"/>
      <point x="1172" y="480" type="line" smooth="yes"/>
      <point x="1172" y="237"/>
      <point x="893" y="-10"/>
      <point x="684" y="-20" type="qcurve"/>
    </contour>
  </outline>
</glyph>
<glyph name="Ka" format="2">
  <advance width="1136"/>
  <unicode hex="041A"/>
  <guideline x="480" y="796" angle="90" identifier="LxfLwWU0sJ"/>
  <anchor x="497" y="1456" name="top"/>
  <anchor x="893" y="0" name="cy_descender"/>
  <outline>
    <contour>
      <point x="890" y="0" type="line"/>
      <point x="262" y="740" type="line"/>
      <point x="422" y="823" type="line"/>
      <point x="1126" y="0" type="line"/>
    </contour>
    <contour>
      <point x="106" y="830" type="line"/>
      <point x="320" y="830" type="line"/>
      <point x="865" y="1456" type="line"/>
      <point x="1082" y="1456" type="line"/>
      <point x="398" y="672" type="line"/>
      <point x="106" y="672" type="line"/>
    </contour>
    <contour>
      <point x="10" y="0" type="line"/>
      <point x="10" y="1456" type="line"/>
      <point x="202" y="1456" type="line"/>
      <point x="202" y="0" type="line"/>
    </contour>
  </outline>
</glyph>
<glyph name="Ecyr" format="2">
  <advance width="1180"/>
  <unicode hex="042D"/>
  <guideline x="1147" y="753" angle="90" identifier="Ovo68woMtl"/>
  <anchor x="569" y="1456" name="top"/>
  <outline>
    <contour>
      <point x="1073" y="830" type="line"/>
      <point x="1073" y="672" type="line"/>
      <point x="330" y="672" type="line"/>
      <point x="330" y="830" type="line"/>
    </contour>
    <contour>
      <point x="976" y="674" type="qcurve" smooth="yes"/>
      <point x="976" y="797" type="line" smooth="yes"/>
      <point x="976" y="1062"/>
      <point x="756" y="1322"/>
      <point x="570" y="1322" type="qcurve" smooth="yes"/>
      <point x="395" y="1322"/>
      <point x="202" y="1142"/>
      <point x="202" y="1003" type="qcurve" smooth="yes"/>
      <point x="202" y="990" type="line"/>
      <point x="10" y="990" type="line"/>
      <point x="10" y="1003" type="line" smooth="yes"/>
      <point x="10" y="1215"/>
      <point x="307" y="1486"/>
      <point x="570" y="1486" type="qcurve" smooth="yes"/>
      <point x="841" y="1486"/>
      <point x="1170" y="1117"/>
      <point x="1170" y="795" type="qcurve" smooth="yes"/>
      <point x="1170" y="707" type="line" smooth="yes"/>
      <point x="1170" y="331"/>
      <point x="829" y="-30"/>
      <point x="565" y="-30" type="qcurve" smooth="yes"/>
      <point x="305" y="-30"/>
      <point x="10" y="259"/>
      <point x="10" y="461" type="qcurve" smooth="yes"/>
      <point x="10" y="466" type="line"/>
      <point x="202" y="466" type="line"/>
      <point x="202" y="461" type="line" smooth="yes"/>
      <point x="202" y="327"/>
      <point x="382" y="134"/>
      <point x="565" y="134" type="qcurve" smooth="yes"/>
      <point x="775" y="134"/>
      <point x="976" y="431"/>
    </contour>
  </outline>
</glyph>
<glyph name="kabashkircyr" format="2">
  <advance width="1220"/>
  <unicode hex="04A1"/>
  <outline>
    <contour>
      <point x="982" y="0" type="line"/>
      <point x="563" y="477" type="line"/>
      <point x="677" y="603" type="line"/>
      <point x="1210" y="0" type="line"/>
    </contour>
    <contour>
      <point x="395" y="610" type="line"/>
      <point x="572" y="610" type="line"/>
      <point x="957" y="1052" type="line"/>
      <point x="1175" y="1052" type="line"/>
      <point x="660" y="465" type="line"/>
      <point x="395" y="465" type="line"/>
    </contour>
    <contour>
      <point x="486" y="1052" type="line"/>
      <point x="486" y="0" type="line"/>
      <point x="300" y="0" type="line"/>
      <point x="300" y="907" type="line"/>
      <point x="10" y="907" type="line"/>
      <point x="10" y="1052" type="line"/>
    </contour>
  </outline>
</glyph>
<glyph name="quotedblright" format="2">
  <advance width="624"/>
  <unicode hex="201D"/>
  <outline>
    <contour>
      <point x="194" y="1456" type="line"/>
      <point x="194" y="1328" type="line" smooth="yes"/>
      <point x="194" y="1238"/>
      <point x="103" y="1034"/>
      <point x="21" y="966" type="qcurve"/>
      <point x="-85" y="1039" type="line"/>
      <point x="-38" y="1105"/>
      <point x="10" y="1244"/>
      <point x="10" y="1325" type="qcurve" smooth="yes"/>
      <point x="10" y="1456" type="line"/>
    </contour>
    <contour>
      <point x="614" y="1456" type="line"/>
      <point x="614" y="1328" type="line" smooth="yes"/>
      <point x="614" y="1238"/>
      <point x="523" y="1034"/>
      <point x="441" y="966" type="qcurve"/>
      <point x="335" y="1039" type="line"/>
      <point x="382" y="1105"/>
      <point x="430" y="1244"/>
      <point x="430" y="1325" type="qcurve" smooth="yes"/>
      <point x="430" y="1456" type="line"/>
    </contour>
  </outline>
</glyph>
<glyph name="dagger" format="2">
  <advance width="878"/>
  <unicode hex="2020"/>
  <outline>
    <contour>
      <point x="10" y="852" type="line"/>
      <point x="10" y="1025" type="line"/>
      <point x="868" y="1025" type="line"/>
      <point x="868" y="852" type="line"/>
    </contour>
    <contour>
      <point x="339" y="8" type="line"/>
      <point x="360" y="748" type="line"/>
      <point x="360" y="905" type="line"/>
      <point x="343" y="1508" type="line"/>
      <point x="534" y="1508" type="line"/>
      <point x="517" y="905" type="line"/>
      <point x="517" y="748" type="line"/>
      <point x="538" y="8" type="line"/>
      <point x="534" y="-274" type="line"/>
      <point x="461" y="-415"/>
      <point x="417" y="-416"/>
      <point x="343" y="-274" type="qcurve"/>
    </contour>
  </outline>
</glyph>
<glyph name="lira" format="2">
  <advance width="1012"/>
  <unicode hex="20A4"/>
  <outline>
    <contour>
      <point x="1002" y="0" type="line"/>
      <point x="10" y="0" type="line"/>
      <point x="10" y="160" type="line"/>
      <point x="66" y="160" type="line" smooth="yes"/>
      <point x="158" y="160"/>
      <point x="241" y="324"/>
      <point x="227" y="467" type="qcurve" smooth="yes"/>
      <point x="172" y="1039" type="line" smooth="yes"/>
      <point x="154" y="1228"/>
      <point x="354" y="1476"/>
      <point x="555" y="1476" type="qcurve" smooth="yes"/>
      <point x="745" y="1476"/>
      <point x="958" y="1270"/>
      <point x="958" y="1103" type="qcurve" smooth="yes"/>
      <point x="958" y="1087" type="line"/>
      <point x="766" y="1087" type="line"/>
      <point x="766" y="1103" type="line" smooth="yes"/>
      <point x="759" y="1218"/>
      <point x="649" y="1319"/>
      <point x="557" y="1319" type="qcurve" smooth="yes"/>
      <point x="455" y="1319"/>
      <point x="342" y="1162"/>
      <point x="354" y="1039" type="qcurve" smooth="yes"/>
      <point x="405" y="508" type="line" smooth="yes"/>
      <point x="418" y="372"/>
      <point x="366" y="207"/>
      <point x="296" y="166" type="qcurve"/>
      <point x="1002" y="166" type="line"/>
    </contour>
    <contour>
      <point x="778" y="431" type="line"/>
      <point x="16" y="431" type="line"/>
      <point x="16" y="590" type="line"/>
      <point x="778" y="590" type="line"/>
    </contour>
    <contour>
      <point x="778" y="756" type="line"/>
      <point x="16" y="756" type="line"/>
      <point x="16" y="916" type="line"/>
      <point x="778" y="916" type="line"/>
    </contour>
  </outline>
</glyph>
<glyph name="numero" format="2">
  <advance width="2076"/>
  <unicode hex="2116"/>
  <outline>
    <contour>
      <point x="10" y="0" type="line"/>
      <point x="10" y="1456" type="line"/>
      <point x="205" y="1456" type="line"/>
      <point x="807" y="416" type="line" smooth="yes"/>
      <point x="825" y="386"/>
      <point x="861" y="326"/>
      <point x="873" y="301" type="qcurve"/>
      <point x="883" y="301" type="line"/>
      <point x="879" y="331"/>
      <point x="877" y="406"/>
      <point x="877" y="436" type="qcurve" smooth="yes"/>
      <point x="877" y="1456" type="line"/>
      <point x="1054" y="1456" type="line"/>
      <point x="1054" y="0" type="line"/>
      <point x="857" y="0" type="line"/>
      <point x="247" y="1028" type="line" smooth="yes"/>
      <point x="228" y="1059"/>
      <point x="202" y="1118"/>
      <point x="195" y="1145" type="qcurve"/>
      <point x="185" y="1145" type="line"/>
      <point x="189" y="1115"/>
      <point x="190" y="1040"/>
      <point x="190" y="1010" type="qcurve" smooth="yes"/>
      <point x="190" y="0" type="line"/>
    </contour>
    <contour>
      <point x="1193" y="992" type="qcurve" smooth="yes"/>
      <point x="1193" y="1019" type="line" smooth="yes"/>
      <point x="1193" y="1219"/>
      <point x="1433" y="1473"/>
      <point x="1629" y="1473" type="qcurve" smooth="yes"/>
      <point x="1825" y="1473"/>
      <point x="2066" y="1219"/>
      <point x="2066" y="1019" type="qcurve" smooth="yes"/>
      <point x="2066" y="992" type="line" smooth="yes"/>
      <point x="2066" y="792"/>
      <point x="1837" y="539"/>
      <point x="1629" y="539" type="qcurve" smooth="yes"/>
      <point x="1421" y="539"/>
      <point x="1193" y="792"/>
    </contour>
    <contour>
      <point x="1391" y="1016" type="qcurve" smooth="yes"/>
      <point x="1391" y="991" type="line" smooth="yes"/>
      <point x="1391" y="864"/>
      <point x="1508" y="699"/>
      <point x="1629" y="699" type="qcurve" smooth="yes"/>
      <point x="1750" y="699"/>
      <point x="1868" y="864"/>
      <point x="1868" y="991" type="qcurve" smooth="yes"/>
      <point x="1868" y="1016" type="line" smooth="yes"/>
      <point x="1868" y="1143"/>
      <point x="1749" y="1308"/>
      <point x="1629" y="1308" type="qcurve" smooth="yes"/>
      <point x="1509" y="1308"/>
      <point x="1391" y="1143"/>
    </contour>
    <contour>
      <point x="1233" y="232" type="line"/>
      <point x="1233" y="414" type="line"/>
      <point x="2026" y="414" type="line"/>
      <point x="2026" y="232" type="line"/>
    </contour>
  </outline>
</glyph>
<glyph name="trademark" format="2">
  <advance width="1712"/>
  <unicode hex="2122"/>
  <outline>
    <contour>
      <point x="10" y="1298" type="line"/>
      <point x="10" y="1456" type="line"/>
      <point x="718" y="1456" type="line"/>
      <point x="718" y="1298" type="line"/>
      <point x="450" y="1298" type="line"/>
      <point x="450" y="700" type="line"/>
      <point x="278" y="700" type="line"/>
      <point x="278" y="1298" type="line"/>
    </contour>
    <contour>
      <point x="836" y="700" type="line"/>
      <point x="836" y="1456" type="line"/>
      <point x="1007" y="1456" type="line"/>
      <point x="1263" y="876" type="line"/>
      <point x="1271" y="876" type="line"/>
      <point x="1531" y="1456" type="line"/>
      <point x="1702" y="1456" type="line"/>
      <point x="1702" y="700" type="line"/>
      <point x="1553" y="700" type="line"/>
      <point x="1553" y="1175" type="line"/>
      <point x="1541" y="1175" type="line"/>
      <point x="1335" y="700" type="line"/>
      <point x="1199" y="700" type="line"/>
      <point x="1003" y="1175" type="line"/>
      <point x="991" y="1175" type="line"/>
      <point x="991" y="700" type="line"/>
    </contour>
  </outline>
</glyph>
<glyph name="divisionslash" format="2">
  <advance width="667"/>
  <unicode hex="2215"/>
  <outline>
    <contour>
      <point x="-62" y="-121" type="line"/>
      <point x="548" y="1536" type="line"/>
      <point x="706" y="1536" type="line"/>
      <point x="96" y="-121" type="line"/>
    </contour>
  </outline>
</glyph>
<glyph name="notequal" format="2">
  <advance width="930"/>
  <unicode hex="2260"/>
  <outline>
    <contour>
      <point x="833" y="1181" type="line"/>
      <point x="653" y="861" type="line"/>
      <point x="629" y="832" type="line"/>
      <point x="415" y="461" type="line"/>
      <point x="408" y="437" type="line"/>
      <point x="207" y="89" type="line"/>
      <point x="75" y="169" type="line"/>
      <point x="235" y="447" type="line"/>
      <point x="255" y="469" type="line"/>
      <point x="462" y="828" type="line"/>
      <point x="476" y="864" type="line"/>
      <point x="701" y="1261" type="line"/>
    </contour>
    <contour>
      <point x="10" y="384" type="line"/>
      <point x="10" y="547" type="line"/>
      <point x="920" y="547" type="line"/>
      <point x="920" y="384" type="line"/>
    </contour>
    <contour>
      <point x="10" y="779" type="line"/>
      <point x="10" y="942" type="line"/>
      <point x="920" y="942" type="line"/>
      <point x="920" y="779" type="line"/>
    </contour>
  </outline>
</glyph>
<glyph name="be.locl" format="2">
  <advance width="1012"/>
  <outline>
    <contour>
      <point x="200" y="522" type="qcurve" smooth="yes"/>
      <point x="200" y="490" type="line" smooth="yes"/>
      <point x="200" y="335"/>
      <point x="354" y="122"/>
      <point x="506" y="122" type="qcurve" smooth="yes"/>
      <point x="658" y="122"/>
      <point x="812" y="335"/>
      <point x="812" y="490" type="qcurve" smooth="yes"/>
      <point x="812" y="522" type="line" smooth="yes"/>
      <point x="812" y="670"/>
      <point x="661" y="890"/>
      <point x="506" y="890" type="qcurve" smooth="yes"/>
      <point x="354" y="890"/>
      <point x="200" y="677"/>
    </contour>
    <contour>
      <point x="10" y="490" type="qcurve" smooth="yes"/>
      <point x="10" y="522" type="line" smooth="yes"/>
      <point x="10" y="676"/>
      <point x="162" y="909"/>
      <point x="321" y="969" type="qcurve"/>
      <point x="321" y="973" type="line"/>
      <point x="179" y="1005"/>
      <point x="70" y="1129"/>
      <point x="70" y="1221" type="qcurve" smooth="yes"/>
      <point x="70" y="1344"/>
      <point x="256" y="1485"/>
      <point x="481" y="1485" type="qcurve" smooth="yes"/>
      <point x="578" y="1485" type="line" smooth="yes"/>
      <point x="684" y="1485"/>
      <point x="778" y="1503"/>
      <point x="787" y="1536" type="qcurve"/>
      <point x="950" y="1536" type="line"/>
      <point x="938" y="1422"/>
      <point x="780" y="1316"/>
      <point x="590" y="1316" type="qcurve" smooth="yes"/>
      <point x="493" y="1316" type="line" smooth="yes"/>
      <point x="353" y="1316"/>
      <point x="247" y="1265"/>
      <point x="247" y="1205" type="qcurve" smooth="yes"/>
      <point x="247" y="1134"/>
      <point x="443" y="1062"/>
      <point x="584" y="1038" type="qcurve" smooth="yes"/>
      <point x="798" y="1002"/>
      <point x="1002" y="724"/>
      <point x="1002" y="522" type="qcurve" smooth="yes"/>
      <point x="1002" y="490" type="line" smooth="yes"/>
      <point x="1002" y="261"/>
      <point x="732" y="-30"/>
      <point x="506" y="-30" type="qcurve" smooth="yes"/>
      <point x="280" y="-30"/>
      <point x="10" y="261"/>
    </contour>
  </outline>
</glyph>
<glyph name="diagonalbaro" format="2">
  <advance width="697"/>
  <outline>
    <contour>
      <point x="10" y="-98" type="line"/>
      <point x="94" y="109" type="line"/>
      <point x="112" y="104" type="line"/>
      <point x="313" y="604" type="line"/>
      <point x="412" y="534" type="line"/>
      <point x="229" y="75" type="line"/>
      <point x="249" y="71" type="line"/>
      <point x="175" y="-103" type="line"/>
    </contour>
    <contour>
      <point x="516" y="1164" type="line"/>
      <point x="687" y="1161" type="line"/>
      <point x="609" y="968" type="line"/>
      <point x="588" y="973" type="line"/>
      <point x="412" y="534" type="line"/>
      <point x="313" y="604" type="line"/>
      <point x="472" y="1001" type="line"/>
      <point x="452" y="1007" type="line"/>
    </contour>
  </outline>
</glyph>
<glyph name="ghe.bgr" format="2">
  <advance width="870"/>
  <outline>
    <contour>
      <point x="860" y="310" type="line"/>
      <point x="860" y="305" type="line" smooth="yes"/>
      <point x="860" y="153"/>
      <point x="640" y="-30"/>
      <point x="430" y="-30" type="qcurve" smooth="yes"/>
      <point x="218" y="-30"/>
      <point x="10" y="147"/>
      <point x="10" y="285" type="qcurve" smooth="yes"/>
      <point x="10" y="427"/>
      <point x="195" y="576"/>
      <point x="365" y="616" type="qcurve" smooth="yes"/>
      <point x="535" y="656"/>
      <point x="651" y="729"/>
      <point x="651" y="792" type="qcurve" smooth="yes"/>
      <point x="651" y="852"/>
      <point x="549" y="930"/>
      <point x="440" y="930" type="qcurve" smooth="yes"/>
      <point x="330" y="930"/>
      <point x="225" y="844"/>
      <point x="225" y="769" type="qcurve" smooth="yes"/>
      <point x="225" y="760" type="line"/>
      <point x="40" y="760" type="line"/>
      <point x="40" y="765" type="line" smooth="yes"/>
      <point x="40" y="911"/>
      <point x="260" y="1082"/>
      <point x="440" y="1082" type="qcurve" smooth="yes"/>
      <point x="637" y="1082"/>
      <point x="835" y="917"/>
      <point x="835" y="793" type="qcurve" smooth="yes"/>
      <point x="835" y="654"/>
      <point x="635" y="510"/>
      <point x="465" y="470" type="qcurve" smooth="yes"/>
      <point x="295" y="430"/>
      <point x="193" y="352"/>
      <point x="193" y="278" type="qcurve" smooth="yes"/>
      <point x="193" y="203"/>
      <point x="324" y="122"/>
      <point x="430" y="122" type="qcurve" smooth="yes"/>
      <point x="540" y="122"/>
      <point x="674" y="214"/>
      <point x="674" y="305" type="qcurve" smooth="yes"/>
      <point x="674" y="310" type="line"/>
    </contour>
  </outline>
</glyph>
<glyph name="sha.bgr" format="2">
  <advance width="1498"/>
  <anchor x="1402" y="0" name="cy_descender"/>
  <outline>
    <contour>
      <point x="1488" y="1052" type="line"/>
      <point x="1488" y="0" type="line"/>
      <point x="1320" y="0" type="line"/>
      <point x="1302" y="295" type="line"/>
      <point x="1302" y="1052" type="line"/>
    </contour>
    <contour>
      <point x="656" y="371" type="qcurve" smooth="yes"/>
      <point x="656" y="1052" type="line"/>
      <point x="842" y="1052" type="line"/>
      <point x="842" y="371" type="line" smooth="yes"/>
      <point x="842" y="245"/>
      <point x="950" y="136"/>
      <point x="1049" y="136" type="qcurve" smooth="yes"/>
      <point x="1140" y="136"/>
      <point x="1288" y="254"/>
      <point x="1391" y="467" type="qcurve"/>
      <point x="1391" y="288" type="line"/>
      <point x="1315" y="110"/>
      <point x="1104" y="-20"/>
      <point x="994" y="-20" type="qcurve" smooth="yes"/>
      <point x="844" y="-20"/>
      <point x="656" y="163"/>
    </contour>
    <contour>
      <point x="715" y="229" type="line"/>
      <point x="691" y="136"/>
      <point x="504" y="-20"/>
      <point x="366" y="-20" type="qcurve" smooth="yes"/>
      <point x="194" y="-20"/>
      <point x="10" y="161"/>
      <point x="10" y="373" type="qcurve" smooth="yes"/>
      <point x="10" y="1052" type="line"/>
      <point x="196" y="1052" type="line"/>
      <point x="196" y="371" type="line" smooth="yes"/>
      <point x="196" y="245"/>
      <point x="304" y="136"/>
      <point x="414" y="136" type="qcurve" smooth="yes"/>
      <point x="525" y="136"/>
      <point x="677" y="317"/>
      <point x="715" y="467" type="qcurve"/>
    </contour>
  </outline>
</glyph>
<glyph name="uni20B1.rvrn" format="2">
  <advance width="1040"/>
  <outline>
    <contour>
      <point x="476" y="421" type="qcurve" smooth="yes"/>
      <point x="219" y="421" type="line"/>
      <point x="219" y="577" type="line"/>
      <point x="474" y="577" type="line" smooth="yes"/>
      <point x="628" y="577"/>
      <point x="740" y="759"/>
      <point x="740" y="945" type="qcurve" smooth="yes"/>
      <point x="740" y="1131"/>
      <point x="628" y="1300"/>
      <point x="474" y="1300" type="qcurve" smooth="yes"/>
      <point x="309" y="1300" type="line"/>
      <point x="309" y="0" type="line"/>
      <point x="121" y="0" type="line"/>
      <point x="121" y="1456" type="line"/>
      <point x="477" y="1456" type="line" smooth="yes"/>
      <point x="693" y="1456"/>
      <point x="926" y="1217"/>
      <point x="926" y="955" type="qcurve" smooth="yes"/>
      <point x="926" y="693"/>
      <point x="689" y="421"/>
    </contour>
    <contour>
      <point x="795" y="1112" type="line"/>
      <point x="831" y="1112" type="line"/>
      <point x="831" y="1137" type="line"/>
      <point x="1030" y="1139" type="line"/>
      <point x="1030" y="982" type="line"/>
      <point x="851" y="980" type="line"/>
      <point x="851" y="995" type="line"/>
      <point x="795" y="995" type="line"/>
    </contour>
    <contour>
      <point x="10" y="980" type="line"/>
      <point x="10" y="1137" type="line"/>
      <point x="212" y="1137" type="line"/>
      <point x="212" y="1112" type="line"/>
      <point x="230" y="1112" type="line"/>
      <point x="230" y="995" type="line"/>
      <point x="212" y="995" type="line"/>
      <point x="212" y="980" type="line"/>
    </contour>
    <contour>
      <point x="794" y="852" type="line"/>
      <point x="851" y="852" type="line"/>
      <point x="851" y="867" type="line"/>
      <point x="1030" y="869" type="line"/>
      <point x="1030" y="712" type="line"/>
      <point x="811" y="710" type="line"/>
      <point x="811" y="734" type="line"/>
      <point x="794" y="734" type="line"/>
    </contour>
    <contour>
      <point x="10" y="710" type="line"/>
      <point x="10" y="867" type="line"/>
      <point x="212" y="867" type="line"/>
      <point x="212" y="852" type="line"/>
      <point x="229" y="852" type="line"/>
      <point x="229" y="734" type="line"/>
      <point x="212" y="734" type="line"/>
      <point x="212" y="710" type="line"/>
    </contour>
  </outline>
</glyph>
<glyph name="zerosuperior" format="2">
  <advance width="673"/>
  <outline>
    <contour>
      <point x="10" y="1036" type="qcurve" smooth="yes"/>
      <point x="10" y="1140" type="line" smooth="yes"/>
      <point x="10" y="1300"/>
      <point x="176" y="1496"/>
      <point x="336" y="1496" type="qcurve" smooth="yes"/>
      <point x="496" y="1496"/>
      <point x="663" y="1300"/>
      <point x="663" y="1140" type="qcurve" smooth="yes"/>
      <point x="663" y="1036" type="line" smooth="yes"/>
      <point x="663" y="876"/>
      <point x="496" y="680"/>
      <point x="336" y="680" type="qcurve" smooth="yes"/>
      <point x="176" y="680"/>
      <point x="10" y="876"/>
    </contour>
    <contour>
      <point x="174" y="1036" type="line" smooth="yes"/>
      <point x="174" y="946"/>
      <point x="246" y="830"/>
      <point x="336" y="830" type="qcurve" smooth="yes"/>
      <point x="426" y="830"/>
      <point x="499" y="946"/>
      <point x="499" y="1036" type="qcurve" smooth="yes"/>
      <point x="499" y="1140" type="line" smooth="yes"/>
      <point x="499" y="1230"/>
      <point x="426" y="1346"/>
      <point x="336" y="1346" type="qcurve" smooth="yes"/>
      <point x="246" y="1346"/>
      <point x="174" y="1230"/>
      <point x="174" y="1140" type="qcurve" smooth="yes"/>
    </contour>
  </outline>
</glyph>
